# xmcd CD database file
#
# Track frame offsets:
#	150
#	37978
#	65101
#	89640
#	115280
#	166028
#
# Disc length: 2456 seconds
#
# Revision: 0
# Processed by: cddbd v1.5.2PL0 Copyright (c) Steve Scherf et al.
# Submitted via: CDex 1.70beta2
#
DISCID=4b099606
DTITLE=Arik Strauss-piano, Eli Magen-bass - Duo
DYEAR=2003
DGENRE=Jazz
TTITLE0=Prelude in c minor Chopin - how deep is the ocean
TTITLE1=Celia
TTITLE2=Longing
TTITLE3=Walty in as major - sleeping bee
TTITLE4=Medly in es
TTITLE5=Midnight mood
EXTD=YEAR: 2003
EXTT0=
EXTT1=
EXTT2=
EXTT3=
EXTT4=
EXTT5=
PLAYORDER=
